<svg width="283" height="321" viewBox="0 0 283 321" fill="none" xmlns="http://www.w3.org/2000/svg">
<rect y="179.421" width="200" height="200" rx="16" transform="rotate(-45 0 179.421)" fill="#29BC4B"/>
<rect y="141.421" width="200" height="200" rx="16" transform="rotate(-45 0 141.421)" fill="#57CE6A"/>
<path d="M44.7709 128C43.3709 128 42.2109 129.16 42.2109 130.56V133.16H60.2109V138.16H42.2109V143.44C42.2109 144.84 43.3709 146 44.7709 146H65.2109V151H44.7709C40.6109 151 37.2509 147.6 37.2509 143.44V130.56C37.2509 126.4 40.6109 123 44.7709 123H65.2109V128H44.7709ZM92.2031 126.84L97.2031 123V151H92.2031V133.16L87.2831 136.92L83.2031 140.08L79.1231 136.92L74.2031 133.16V151H69.2031V123L74.2031 126.84L83.2031 133.76L92.2031 126.84ZM108.755 128C107.355 128 106.195 129.16 106.195 130.56V133.16H124.195V138.16H106.195V143.44C106.195 144.84 107.355 146 108.755 146H129.195V151H108.755C104.595 151 101.235 147.6 101.235 143.44V130.56C101.235 126.4 104.595 123 108.755 123H129.195V128H108.755ZM151.788 138.08L155.788 146.08L158.348 151.08H152.748L150.188 146.08L147.508 140.84L147.388 140.6C146.508 139.16 144.948 138.2 143.148 138.2H138.148V151.08H133.148V123.08H150.828C152.908 123.08 154.788 123.92 156.148 125.28C157.508 126.64 158.348 128.52 158.348 130.6C158.348 133.64 156.548 136.28 153.948 137.48C153.268 137.8 152.548 138 151.788 138.08ZM138.148 133.24L150.828 133.2C151.188 133.2 151.548 133.12 151.868 132.96C152.788 132.56 153.388 131.64 153.388 130.64C153.388 129.72 152.908 129.08 152.628 128.8C152.307 128.48 151.708 128.08 150.828 128.08H138.148V133.24ZM186.806 146L189.366 151H183.766L181.206 146L175.086 134L168.966 146L166.406 151H160.806L163.366 146L175.086 123L186.806 146ZM199.127 146L213.807 146.04V151.04H199.607C198.207 151.04 196.887 150.72 195.687 150.12C193.927 149.24 192.487 147.8 191.647 146.04C191.047 144.84 190.727 143.52 190.727 142.12V123.04H195.727V142.6C195.967 144.36 197.367 145.76 199.127 146ZM231.797 123L231.757 123.04C239.477 123.04 245.757 129.28 245.757 137C245.757 140.44 244.517 143.6 242.437 146.04C242.197 146.32 241.917 146.6 241.637 146.88C239.117 149.44 235.637 151 231.797 151H217.797V123H231.797ZM231.757 146.04C236.717 146.04 240.757 142 240.757 137.04C240.757 132.08 236.717 128.04 231.757 128.04H222.757V146.04H231.757Z" fill="white"/>
</svg>
