<svg width="224" height="46" viewBox="0 0 224 46" fill="none" xmlns="http://www.w3.org/2000/svg">
<rect x="125" y="24.8984" width="27.7542" height="27.7542" rx="5" transform="rotate(-45 125 24.8984)" fill="#29BC4B"/>
<rect x="125" y="19.6252" width="27.7542" height="27.7542" rx="5" transform="rotate(-45 125 19.6252)" fill="#57CE6A"/>
<path d="M9.93891 13C8.53891 13 7.37891 14.16 7.37891 15.56V18.16H25.3789V23.16H7.37891V28.44C7.37891 29.84 8.53891 31 9.93891 31H30.3789V36H9.93891C5.77891 36 2.41891 32.6 2.41891 28.44V15.56C2.41891 11.4 5.77891 8 9.93891 8H30.3789V13H9.93891ZM57.3711 11.84L62.3711 8V36H57.3711V18.16L52.4511 21.92L48.3711 25.08L44.2911 21.92L39.3711 18.16V36H34.3711V8L39.3711 11.84L48.3711 18.76L57.3711 11.84ZM73.9233 13C72.5233 13 71.3633 14.16 71.3633 15.56V18.16H89.3633V23.16H71.3633V28.44C71.3633 29.84 72.5233 31 73.9233 31H94.3633V36H73.9233C69.7633 36 66.4033 32.6 66.4033 28.44V15.56C66.4033 11.4 69.7633 8 73.9233 8H94.3633V13H73.9233ZM116.955 23.08L120.955 31.08L123.515 36.08H117.915L115.355 31.08L112.675 25.84L112.555 25.6C111.675 24.16 110.115 23.2 108.315 23.2H103.315V36.08H98.3155V8.08H115.995C118.075 8.08 119.955 8.92 121.315 10.28C122.675 11.64 123.515 13.52 123.515 15.6C123.515 18.64 121.715 21.28 119.115 22.48C118.435 22.8 117.715 23 116.955 23.08ZM103.315 18.24L115.995 18.2C116.355 18.2 116.715 18.12 117.035 17.96C117.955 17.56 118.555 16.64 118.555 15.64C118.555 14.72 118.075 14.08 117.795 13.8C117.475 13.48 116.875 13.08 115.995 13.08H103.315V18.24ZM174.959 31L189.639 31.04V36.04H175.439C174.039 36.04 172.719 35.72 171.519 35.12C169.759 34.24 168.319 32.8 167.479 31.04C166.879 29.84 166.559 28.52 166.559 27.12V8.04H171.559V27.6C171.799 29.36 173.199 30.76 174.959 31ZM207.629 8L207.589 8.04C215.309 8.04 221.589 14.28 221.589 22C221.589 25.44 220.349 28.6 218.269 31.04C218.029 31.32 217.749 31.6 217.469 31.88C214.949 34.44 211.469 36 207.629 36H193.629V8H207.629ZM207.589 31.04C212.549 31.04 216.589 27 216.589 22.04C216.589 17.08 212.549 13.04 207.589 13.04H198.589V31.04H207.589Z" fill="black"/>
</svg>
